<svg width="20" height="20" viewBox="0 0 20 20" fill="none" xmlns="http://www.w3.org/2000/svg">
<path fill-rule="evenodd" clip-rule="evenodd" d="M5 6.66663C5 3.9052 7.23858 1.66663 10 1.66663C12.7614 1.66663 15 3.9052 15 6.66663V7.62523C15.2355 7.67684 15.4615 7.75198 15.68 7.86327C16.3072 8.18285 16.8171 8.69279 17.1367 9.31999C17.3428 9.72444 17.4249 10.155 17.4632 10.6234C17.5 11.0744 17.5 11.6281 17.5 12.2989V13.5344C17.5 14.2052 17.5 14.7588 17.4632 15.2098C17.4249 15.6782 17.3428 16.1088 17.1367 16.5133C16.8171 17.1405 16.3072 17.6504 15.68 17.97C15.2755 18.1761 14.8449 18.2582 14.3765 18.2965C13.9255 18.3333 13.3719 18.3333 12.7011 18.3333H7.29894C6.62812 18.3333 6.07448 18.3333 5.62348 18.2965C5.15507 18.2582 4.72448 18.1761 4.32003 17.97C3.69283 17.6504 3.18289 17.1405 2.86331 16.5133C2.65724 16.1088 2.5751 15.6782 2.53683 15.2098C2.49998 14.7588 2.49999 14.2052 2.5 13.5344V12.2989C2.49999 11.6281 2.49998 11.0744 2.53683 10.6234C2.5751 10.155 2.65724 9.72444 2.86331 9.31999C3.18289 8.69279 3.69283 8.18285 4.32003 7.86327C4.53845 7.75198 4.76449 7.67684 5 7.62523V6.66663ZM13.3333 6.66663V7.50131H6.66667V6.66663C6.66667 4.82568 8.15905 3.33329 10 3.33329C11.8409 3.33329 13.3333 4.82568 13.3333 6.66663ZM10.8333 12.0833C10.8333 11.6231 10.4602 11.25 10 11.25C9.53976 11.25 9.16667 11.6231 9.16667 12.0833V13.75C9.16667 14.2102 9.53976 14.5833 10 14.5833C10.4602 14.5833 10.8333 14.2102 10.8333 13.75V12.0833Z" fill="#6C7275" fill-opacity="0.5"/>
</svg>
