<svg width="20" height="20" viewBox="0 0 20 20" fill="none" xmlns="http://www.w3.org/2000/svg">
<path d="M18.9428 2.94277C19.4635 2.42207 19.4635 1.57785 18.9428 1.05715C18.4221 0.536451 17.5779 0.536451 17.0572 1.05715L10 8.11434L2.94283 1.05715C2.42213 0.536451 1.57791 0.536451 1.05721 1.05715C0.536512 1.57785 0.536512 2.42207 1.05721 2.94277L8.1144 9.99996L1.05721 17.0572C0.536512 17.5779 0.536512 18.4221 1.05721 18.9428C1.57791 19.4635 2.42213 19.4635 2.94283 18.9428L10 11.8856L17.0572 18.9428C17.5779 19.4635 18.4221 19.4635 18.9428 18.9428C19.4635 18.4221 19.4635 17.5779 18.9428 17.0572L11.8856 9.99996L18.9428 2.94277Z" fill="#6C7275"/>
</svg>
